<svg width="49" height="40" viewBox="0 0 49 40" fill="none" xmlns="http://www.w3.org/2000/svg">
<path d="M47.5974 9.92608C48.0573 9.62023 48.1822 8.9995 47.8763 8.53963L42.8923 1.04566C42.5865 0.585797 41.9657 0.460937 41.5059 0.766781C41.046 1.07263 40.9211 1.69336 41.227 2.15322L45.6572 8.81453L38.9959 13.2448C38.536 13.5506 38.4112 14.1713 38.717 14.6312C39.0229 15.0911 39.6436 15.2159 40.1035 14.9101L47.5974 9.92608ZM7.91832 39.0247C8.72169 30.4459 14.1549 22.3372 21.6126 16.7909C29.0702 11.2447 38.3994 8.37465 46.8465 10.0738L47.2409 8.11305C38.1025 6.27486 28.2074 9.39391 20.419 15.1861C12.6307 20.9783 6.79615 29.5573 5.92704 38.8382L7.91832 39.0247Z" fill="#22577A"/>
</svg>
